<svg width="125" height="124" viewBox="0 0 125 124" fill="none" xmlns="http://www.w3.org/2000/svg">
<path d="M62.7447 114.193C91.5843 114.193 115.083 90.7909 115.083 62.0485C114.986 33.2089 91.5843 9.80713 62.7447 9.80713C33.808 9.80713 10.4062 33.2089 10.4062 61.9514C10.4062 90.7909 33.808 114.193 62.7447 114.193Z" fill="#F1F3F9" stroke="#D6DCE8" stroke-width="1.94206" stroke-miterlimit="10"/>
<path d="M118.192 68.6515C118.192 79.8184 109.161 88.8489 97.8973 88.8489C97.7031 88.8489 96.0523 88.8489 83.9145 88.8489C75.4665 88.8489 61.9692 88.8489 40.4124 88.8489H30.1195C16.6222 89.1402 5.84375 78.3618 5.84375 65.35C5.84375 52.2411 16.7193 41.3656 30.4108 42.0453C42.1602 5.34044 95.9552 10.4869 100.519 48.4541C110.618 49.7165 118.192 58.2615 118.192 68.6515Z" fill="white" stroke="#D6DCE8" stroke-width="1.94206" stroke-miterlimit="10"/>
<path d="M100.221 48.5512C99.4442 48.4541 98.6674 48.4541 97.8906 48.4541C93.9094 48.4541 90.1224 49.6193 86.918 51.6585" fill="white"/>
<path d="M100.221 48.5512C99.4442 48.4541 98.6674 48.4541 97.8906 48.4541C93.9094 48.4541 90.1224 49.6193 86.918 51.6585" stroke="#D6DCE8" stroke-width="1.94206" stroke-miterlimit="10" stroke-linecap="round"/>
<path d="M30.408 42.0454C29.2428 45.5411 28.6602 49.231 28.6602 53.1151C28.6602 54.6688 28.7573 56.1253 28.9515 57.5819" fill="white"/>
<path d="M30.408 42.0454C29.2428 45.5411 28.6602 49.231 28.6602 53.1151C28.6602 54.6688 28.7573 56.1253 28.9515 57.5819" stroke="#D6DCE8" stroke-width="1.94206" stroke-miterlimit="10" stroke-linecap="round" stroke-linejoin="round"/>
<path d="M49.7312 66.9037C53.5182 64.4761 57.9849 63.1167 62.743 63.1167C75.7548 63.1167 86.339 73.6038 86.339 86.6156C86.339 99.6274 75.7548 110.114 62.743 110.114C49.7312 110.114 39.147 99.6274 39.147 86.6156C38.9528 78.3618 43.2253 71.1762 49.7312 66.9037Z" fill="#D6DCE8" stroke="#AAB2C5" stroke-width="1.94206" stroke-miterlimit="10"/>
<path d="M62.5518 75.9346C62.9754 75.9346 63.4362 75.9942 63.8633 76.1543C64.2519 76.3 64.6614 76.5505 64.9521 76.9619L71.4922 83.501C72.6482 84.657 72.6482 86.6321 71.4922 87.7881C70.3155 88.9646 68.3689 88.91 67.1504 87.8271L67.1348 87.8135L67.1201 87.7988L65.7559 86.4785V94.8691C65.7559 96.5707 64.35 97.9766 62.6484 97.9766C60.9471 97.9763 59.542 96.5705 59.542 94.8691V86.4775L58.1885 87.7871C57.0117 88.9639 55.0652 88.9103 53.8467 87.8271L53.8057 87.7881C53.169 87.1514 52.8418 86.4283 52.8418 85.6445C52.8418 85.2857 52.9106 84.8683 53.0713 84.4756C53.2157 84.1225 53.463 83.7252 53.8662 83.4395L60.4082 76.8984C60.6459 76.6607 60.9824 76.4346 61.3164 76.2676C61.6384 76.1066 62.089 75.9346 62.5518 75.9346Z" fill="white" stroke="#AAB2C5" stroke-width="1.94206"/>
<path d="M115.954 43.793C118.153 43.793 119.935 42.0106 119.935 39.8118C119.935 37.613 118.153 35.8306 115.954 35.8306C113.755 35.8306 111.973 37.613 111.973 39.8118C111.973 42.0106 113.755 43.793 115.954 43.793Z" fill="#F1F3F9"/>
<path d="M121.777 28.2571C123.279 28.2571 124.496 27.0398 124.496 25.5382C124.496 24.0366 123.279 22.8193 121.777 22.8193C120.276 22.8193 119.059 24.0366 119.059 25.5382C119.059 27.0398 120.276 28.2571 121.777 28.2571Z" fill="#F1F3F9"/>
<path d="M11.6681 37.1907C13.1697 37.1907 14.387 35.9734 14.387 34.4718C14.387 32.9702 13.1697 31.7529 11.6681 31.7529C10.1665 31.7529 8.94922 32.9702 8.94922 34.4718C8.94922 35.9734 10.1665 37.1907 11.6681 37.1907Z" fill="#F1F3F9"/>
<path d="M5.54935 97.0059C8.33803 97.0059 10.5987 94.7453 10.5987 91.9566C10.5987 89.1679 8.33803 86.9072 5.54935 86.9072C2.76067 86.9072 0.5 89.1679 0.5 91.9566C0.5 94.7453 2.76067 97.0059 5.54935 97.0059Z" fill="#F1F3F9"/>
</svg>
